<?xml version="1.0" encoding="utf-8"?>
<svg viewBox="0 0 592 266" xmlns="http://www.w3.org/2000/svg">
  <path d="M 3.122 0.511 L 120.285 0.511 L 184.56 150.306 L 248.836 0.511 L 316.383 0.511 C 316.498 0.511 316.611 0.517 316.723 0.53 L 373.212 0.53 L 307.608 146.22 L 336.372 146.22 L 336.372 146.308 L 357.898 146.308 L 329.916 265.705 L 316.756 265.705 C 316.634 265.72 316.509 265.728 316.383 265.728 L 293.63 265.728 L 293.63 53.238 L 208.751 265.728 L 160.507 265.728 L 75.572 53.099 L 75.572 265.728 L 3.122 265.728 C 1.465 265.728 0.122 264.385 0.122 262.728 L 0.122 3.511 C 0.122 1.854 1.465 0.511 3.122 0.511 Z" style="fill: rgb(252, 215, 127);"/>
  <path d="M 416.298 0.53 C 416.324 0.53 416.35 0.53 416.376 0.531 L 588.599 0.531 C 590.256 0.531 591.599 1.874 591.599 3.531 L 591.599 67.277 C 591.599 68.934 590.256 70.277 588.599 70.277 L 419.298 70.277 L 419.298 97.873 L 581.285 97.873 C 582.942 97.873 584.285 99.216 584.285 100.873 L 584.285 164.619 C 584.285 166.276 582.942 167.619 581.285 167.619 L 419.298 167.619 L 419.298 195.95 L 588.483 195.95 C 590.14 195.95 591.483 197.293 591.483 198.95 L 591.483 262.696 C 591.483 264.353 590.14 265.696 588.483 265.696 L 416.532 265.696 C 416.455 265.702 416.377 265.705 416.298 265.705 L 333.549 265.705 L 403.574 106.213 L 353.277 106.153 L 377.031 0.53 L 416.298 0.53 Z" style="fill: rgb(243, 243, 243);"/>
</svg>