<?xml version="1.0" encoding="utf-8"?>
<svg fill="#000000" height="800px" width="800px" version="1.1" id="Capa_1" viewBox="0 0 490 430" xmlns="http://www.w3.org/2000/svg">
  <path d="M 105.453 1.26 L 384.547 1.26 C 442.687 1.26 490 49.606 490 109.016 L 490 215.755 C 490 275.166 442.687 323.511 384.547 323.511 L 208.139 323.511 L 79.897 428.74 L 79.897 320.266 C 33.511 308.453 0 265.745 0 215.755 L 0 109.016 C 0 49.606 47.313 1.26 105.453 1.26 Z M 156.769 125.441 C 156.769 113.547 155.362 105.12 152.547 100.159 C 149.732 95.198 143.989 91.085 135.319 87.818 C 126.649 84.552 116.159 82.919 103.848 82.919 C 92.588 82.919 82.98 84.414 75.022 87.403 C 67.066 90.391 61.305 94.536 57.739 99.836 C 54.173 105.135 52.391 113.516 52.391 124.979 C 52.391 132.929 53.648 139.461 56.163 144.576 C 58.677 149.691 61.849 153.697 65.677 156.593 C 69.505 159.49 77.312 164.143 89.098 170.552 C 100.883 176.899 108.277 181.429 111.279 184.14 C 114.207 186.852 115.671 192.614 115.671 201.426 C 115.671 205.432 114.901 208.452 113.362 210.486 C 111.824 212.52 109.478 213.537 106.325 213.537 C 103.172 213.537 100.976 212.735 99.738 211.133 C 98.499 209.53 97.88 205.925 97.88 200.317 L 97.88 182.107 L 53.854 182.107 L 53.854 191.906 C 53.854 203.121 55.243 211.78 58.02 217.881 C 60.798 223.982 66.672 229.004 75.642 232.949 C 84.612 236.892 95.44 238.864 108.126 238.864 C 119.687 238.864 129.821 237.154 138.528 233.734 C 147.236 230.314 153.109 226.077 156.15 221.024 C 159.19 215.971 160.71 208.113 160.71 197.452 C 160.71 182.785 157.97 172.154 152.49 165.56 C 147.011 158.966 133.724 150.523 112.63 140.232 C 105.274 136.657 100.808 133.607 99.231 131.08 C 97.58 128.554 96.754 124.794 96.754 119.803 C 96.754 115.92 97.486 113.024 98.95 111.113 C 100.414 109.203 102.572 108.248 105.424 108.248 C 108.051 108.248 109.928 108.956 111.054 110.374 C 112.18 111.791 112.743 115.088 112.743 120.265 L 112.743 131.357 L 156.769 131.357 L 156.769 125.441 Z M 260.007 86.062 L 249.198 155.946 L 242.667 117.861 C 240.64 105.659 238.726 95.059 236.925 86.062 L 175.558 86.062 L 175.558 235.722 L 216.995 235.722 L 216.995 136.997 L 234.448 235.722 L 263.835 235.722 L 280.387 134.685 L 280.387 235.722 L 321.823 235.722 L 321.823 86.062 L 260.007 86.062 Z M 441.296 125.441 C 441.296 113.547 439.888 105.12 437.073 100.159 C 434.258 95.198 428.516 91.085 419.846 87.818 C 411.176 84.552 400.686 82.919 388.375 82.919 C 377.115 82.919 367.507 84.414 359.55 87.403 C 351.592 90.391 345.831 94.536 342.266 99.836 C 338.7 105.135 336.917 113.516 336.917 124.979 C 336.917 132.929 338.174 139.461 340.689 144.576 C 343.204 149.691 346.375 153.697 350.203 156.593 C 354.032 159.49 361.839 164.143 373.625 170.552 C 385.41 176.899 392.804 181.429 395.806 184.14 C 398.734 186.852 400.198 192.614 400.198 201.426 C 400.198 205.432 399.428 208.452 397.889 210.486 C 396.35 212.52 394.004 213.537 390.852 213.537 C 387.699 213.537 385.503 212.735 384.265 211.133 C 383.026 209.53 382.407 205.925 382.407 200.317 L 382.407 182.107 L 338.381 182.107 L 338.381 191.906 C 338.381 203.121 339.77 211.78 342.547 217.881 C 345.324 223.982 351.198 229.004 360.169 232.949 C 369.139 236.892 379.968 238.864 392.653 238.864 C 404.213 238.864 414.347 237.154 423.055 233.734 C 431.762 230.314 437.636 226.077 440.677 221.024 C 443.717 215.971 445.236 208.113 445.236 197.452 C 445.236 182.785 442.497 172.154 437.017 165.56 C 431.537 158.966 418.25 150.523 397.157 140.232 C 389.801 136.657 385.335 133.607 383.758 131.08 C 382.107 128.554 381.281 124.794 381.281 119.803 C 381.281 115.92 382.013 113.024 383.477 111.113 C 384.94 109.203 387.098 108.248 389.951 108.248 C 392.578 108.248 394.455 108.956 395.58 110.374 C 396.707 111.791 397.27 115.088 397.27 120.265 L 397.27 131.357 L 441.296 131.357 L 441.296 125.441 Z" style="fill: rgb(255, 0, 0);"/>
</svg>