<?xml version="1.0" encoding="utf-8"?>
<svg version="1.1" id="Layer_1" x="0px" y="0px" viewBox="0 0 83 237" xmlns="http://www.w3.org/2000/svg">
  <path d="M -30.044 47.814 C -31.542 51.77 -32.479 55.528 -32.904 59.306 C -32.906 59.318 -32.907 59.33 -32.909 59.342 C -36.745 91.14 -21.859 120.562 18.473 160.893 C 66.316 208.733 105.986 212.452 117.005 212.452 C 118.784 212.452 119.845 212.357 120.108 212.331 C 124.057 211.854 127.826 210.906 131.627 209.431 C 133.966 208.517 143.716 201.219 151.502 194.91 C 155.745 190.491 155.871 183.616 151.744 179.477 L 121.168 148.897 C 119.229 146.965 116.594 145.896 113.76 145.896 C 110.699 145.896 107.798 147.113 105.59 149.32 L 90.183 164.724 C 88.647 166.26 86.282 166.596 84.379 165.548 C 83.393 165.006 82.375 164.439 81.303 163.837 C 71.358 158.326 57.704 150.762 43.182 136.229 C 28.668 121.718 21.08 108.053 15.538 98.075 L 15.245 97.545 C 14.779 96.703 14.329 95.887 13.884 95.107 C 12.789 93.194 13.111 90.787 14.671 89.23 L 25.012 78.905 L 30.089 73.819 C 34.498 69.41 34.681 62.421 30.501 58.235 L -0.078 27.649 C -2.017 25.711 -4.647 24.641 -7.48 24.641 C -10.466 24.641 -13.301 25.8 -15.49 27.91 C -21.792 35.676 -29.085 45.411 -30.044 47.814 Z" style="transform-box: fill-box; transform-origin: 50% 50%; fill: rgb(255, 0, 0);" transform="matrix(0.707107, 0.707107, -0.707107, 0.707107, -0.000003, 0)"/>
</svg>